<svg width="240" height="240" viewBox="0 0 240 240" fill="none" xmlns="http://www.w3.org/2000/svg">
<path d="M86.79 130V108.82H89.76V127.42H99.27V130H86.79ZM100.406 122.38C100.406 120.12 101.196 118.24 102.776 116.74C104.356 115.22 106.286 114.46 108.566 114.46C110.866 114.46 112.806 115.21 114.386 116.71C115.966 118.21 116.756 120.1 116.756 122.38C116.756 124.66 115.966 126.56 114.386 128.08C112.806 129.6 110.876 130.36 108.596 130.36C106.316 130.36 104.376 129.6 102.776 128.08C101.196 126.56 100.406 124.66 100.406 122.38ZM103.376 122.38C103.376 123.96 103.876 125.27 104.876 126.31C105.896 127.33 107.136 127.84 108.596 127.84C110.036 127.84 111.266 127.32 112.286 126.28C113.306 125.24 113.816 123.94 113.816 122.38C113.816 120.82 113.306 119.53 112.286 118.51C111.266 117.49 110.036 116.98 108.596 116.98C107.136 116.98 105.896 117.49 104.876 118.51C103.876 119.53 103.376 120.82 103.376 122.38ZM121.704 132.76C123.064 133.44 124.454 133.78 125.874 133.78C127.294 133.78 128.444 133.43 129.324 132.73C130.224 132.05 130.674 130.99 130.674 129.55V128.32L130.764 127.36H130.704C129.724 129 128.204 129.82 126.144 129.82C124.084 129.82 122.434 129.09 121.194 127.63C119.974 126.17 119.364 124.32 119.364 122.08C119.364 119.84 119.954 118.01 121.134 116.59C122.314 115.17 123.934 114.46 125.994 114.46C127.014 114.46 127.954 114.65 128.814 115.03C129.674 115.41 130.334 115.99 130.794 116.77H130.884C130.824 116.65 130.794 116.5 130.794 116.32V114.82H133.584V129.37C133.584 130.57 133.364 131.63 132.924 132.55C132.504 133.47 131.924 134.19 131.184 134.71C130.444 135.25 129.634 135.65 128.754 135.91C127.874 136.17 126.934 136.3 125.934 136.3C124.154 136.3 122.424 135.88 120.744 135.04L121.704 132.76ZM122.304 121.99C122.304 123.59 122.694 124.88 123.474 125.86C124.274 126.82 125.354 127.3 126.714 127.3C127.894 127.3 128.854 126.89 129.594 126.07C130.354 125.25 130.734 123.92 130.734 122.08C130.734 118.68 129.304 116.98 126.444 116.98C125.144 116.98 124.124 117.43 123.384 118.33C122.664 119.21 122.304 120.43 122.304 121.99ZM137.086 122.38C137.086 120.12 137.876 118.24 139.456 116.74C141.036 115.22 142.966 114.46 145.246 114.46C147.546 114.46 149.486 115.21 151.066 116.71C152.646 118.21 153.436 120.1 153.436 122.38C153.436 124.66 152.646 126.56 151.066 128.08C149.486 129.6 147.556 130.36 145.276 130.36C142.996 130.36 141.056 129.6 139.456 128.08C137.876 126.56 137.086 124.66 137.086 122.38ZM140.056 122.38C140.056 123.96 140.556 125.27 141.556 126.31C142.576 127.33 143.816 127.84 145.276 127.84C146.716 127.84 147.946 127.32 148.966 126.28C149.986 125.24 150.496 123.94 150.496 122.38C150.496 120.82 149.986 119.53 148.966 118.51C147.946 117.49 146.716 116.98 145.276 116.98C143.816 116.98 142.576 117.49 141.556 118.51C140.556 119.53 140.056 120.82 140.056 122.38Z" fill="white"/>
<circle cx="120" cy="120" r="119" stroke="white" stroke-width="2"/>
</svg>
